<svg width="41" height="40" viewBox="0 0 41 40" fill="none" xmlns="http://www.w3.org/2000/svg">
<path d="M40.1668 20.0001C40.1668 30.8249 31.3916 39.6001 20.5668 39.6001C9.74202 39.6001 0.966797 30.8249 0.966797 20.0001C0.966797 9.17537 9.74202 0.400146 20.5668 0.400146C31.3916 0.400146 40.1668 9.17537 40.1668 20.0001Z" fill="url(#paint0_radial_501_92)"/>
<path d="M40.1668 20.0001C40.1668 30.8249 31.3916 39.6001 20.5668 39.6001C9.74202 39.6001 0.966797 30.8249 0.966797 20.0001C0.966797 9.17537 9.74202 0.400146 20.5668 0.400146C31.3916 0.400146 40.1668 9.17537 40.1668 20.0001Z" fill="url(#paint1_linear_501_92)"/>
<path d="M40.1668 20.0001C40.1668 30.8249 31.3916 39.6001 20.5668 39.6001C9.74202 39.6001 0.966797 30.8249 0.966797 20.0001C0.966797 9.17537 9.74202 0.400146 20.5668 0.400146C31.3916 0.400146 40.1668 9.17537 40.1668 20.0001Z" fill="url(#paint2_radial_501_92)"/>
<path d="M40.1668 20.0001C40.1668 30.8249 31.3916 39.6001 20.5668 39.6001C9.74202 39.6001 0.966797 30.8249 0.966797 20.0001C0.966797 9.17537 9.74202 0.400146 20.5668 0.400146C31.3916 0.400146 40.1668 9.17537 40.1668 20.0001Z" fill="url(#paint3_radial_501_92)"/>
<path d="M40.1668 20.0001C40.1668 30.8249 31.3916 39.6001 20.5668 39.6001C9.74202 39.6001 0.966797 30.8249 0.966797 20.0001C0.966797 9.17537 9.74202 0.400146 20.5668 0.400146C31.3916 0.400146 40.1668 9.17537 40.1668 20.0001Z" fill="url(#paint4_radial_501_92)"/>
<defs>
<radialGradient id="paint0_radial_501_92" cx="0" cy="0" r="1" gradientUnits="userSpaceOnUse" gradientTransform="translate(32.0177 9.85014) rotate(130.168) scale(38.932)">
<stop stop-color="#645B70"/>
<stop offset="0.661752" stop-color="#33293D"/>
</radialGradient>
<linearGradient id="paint1_linear_501_92" x1="20.5668" y1="0.400146" x2="20.5668" y2="9.50015" gradientUnits="userSpaceOnUse">
<stop stop-color="#554A63"/>
<stop offset="1" stop-color="#554A63" stop-opacity="0"/>
</linearGradient>
<radialGradient id="paint2_radial_501_92" cx="0" cy="0" r="1" gradientUnits="userSpaceOnUse" gradientTransform="translate(32.7177 12.6501) rotate(137.283) scale(18.0577 16.6732)">
<stop offset="0.112785" stop-color="#6A6571"/>
<stop offset="1" stop-color="#49474C" stop-opacity="0"/>
</radialGradient>
<radialGradient id="paint3_radial_501_92" cx="0" cy="0" r="1" gradientUnits="userSpaceOnUse" gradientTransform="translate(26.8552 20.0001) rotate(180) scale(26.95 28)">
<stop offset="0.62013" stop-color="#434344" stop-opacity="0"/>
<stop offset="0.951299" stop-color="#8C8B8D"/>
</radialGradient>
<radialGradient id="paint4_radial_501_92" cx="0" cy="0" r="1" gradientUnits="userSpaceOnUse" gradientTransform="translate(20.5668 10.2001) rotate(90) scale(30.6372 34.0231)">
<stop offset="0.853003" stop-color="#352343" stop-opacity="0"/>
<stop offset="1" stop-color="#50405F"/>
</radialGradient>
</defs>
</svg>
