<svg width="49" height="28" viewBox="0 0 49 28" fill="none" xmlns="http://www.w3.org/2000/svg">
<g clip-path="url(#clip0_1402_21737)">
<path d="M28.1587 14.0002C28.1587 21.5776 22.0161 27.7202 14.4387 27.7202C6.8614 27.7202 0.71875 21.5776 0.71875 14.0002C0.71875 6.42293 6.8614 0.280273 14.4387 0.280273C22.0161 0.280273 28.1587 6.42293 28.1587 14.0002Z" fill="url(#paint0_radial_1402_21737)"/>
<path d="M28.1587 14.0002C28.1587 21.5776 22.0161 27.7202 14.4387 27.7202C6.8614 27.7202 0.71875 21.5776 0.71875 14.0002C0.71875 6.42293 6.8614 0.280273 14.4387 0.280273C22.0161 0.280273 28.1587 6.42293 28.1587 14.0002Z" fill="url(#paint1_linear_1402_21737)"/>
<path d="M28.1587 14.0002C28.1587 21.5776 22.0161 27.7202 14.4387 27.7202C6.8614 27.7202 0.71875 21.5776 0.71875 14.0002C0.71875 6.42293 6.8614 0.280273 14.4387 0.280273C22.0161 0.280273 28.1587 6.42293 28.1587 14.0002Z" fill="url(#paint2_radial_1402_21737)"/>
<path d="M28.1587 14.0002C28.1587 21.5776 22.0161 27.7202 14.4387 27.7202C6.8614 27.7202 0.71875 21.5776 0.71875 14.0002C0.71875 6.42293 6.8614 0.280273 14.4387 0.280273C22.0161 0.280273 28.1587 6.42293 28.1587 14.0002Z" fill="url(#paint3_radial_1402_21737)"/>
<path d="M28.1587 14.0002C28.1587 21.5776 22.0161 27.7202 14.4387 27.7202C6.8614 27.7202 0.71875 21.5776 0.71875 14.0002C0.71875 6.42293 6.8614 0.280273 14.4387 0.280273C22.0161 0.280273 28.1587 6.42293 28.1587 14.0002Z" fill="url(#paint4_radial_1402_21737)"/>
</g>
<path d="M43 14C43 20.6274 37.6274 26 31 26C24.3726 26 19 20.6274 19 14C19 7.3726 24.3726 2 31 2C37.6274 2 43 7.3726 43 14Z" fill="url(#paint5_radial_1402_21737)"/>
<path d="M43 14C43 20.6274 37.6274 26 31 26C24.3726 26 19 20.6274 19 14C19 7.3726 24.3726 2 31 2C37.6274 2 43 7.3726 43 14Z" fill="url(#paint6_linear_1402_21737)"/>
<path d="M43 14C43 20.6274 37.6274 26 31 26C24.3726 26 19 20.6274 19 14C19 7.3726 24.3726 2 31 2C37.6274 2 43 7.3726 43 14Z" fill="url(#paint7_radial_1402_21737)"/>
<path d="M43 14C43 20.6274 37.6274 26 31 26C24.3726 26 19 20.6274 19 14C19 7.3726 24.3726 2 31 2C37.6274 2 43 7.3726 43 14Z" fill="url(#paint8_radial_1402_21737)"/>
<path d="M43 14C43 20.6274 37.6274 26 31 26C24.3726 26 19 20.6274 19 14C19 7.3726 24.3726 2 31 2C37.6274 2 43 7.3726 43 14Z" fill="url(#paint9_radial_1402_21737)"/>
<path d="M47.8581 9.50997C48.4367 11.5878 47.2336 14.1205 44.4745 16.5699C41.7463 18.9918 37.6258 21.2033 32.7566 22.6031C27.8874 24.0029 23.2373 24.3127 19.6646 23.7022C16.0514 23.0847 13.7206 21.5679 13.1419 19.4901C12.5633 17.4122 13.7664 14.8795 16.5255 12.4301C19.2538 10.0082 23.3742 7.79666 28.2434 6.39691C33.1126 4.99711 37.7627 4.6873 41.3354 5.29784C44.9486 5.91532 47.2795 7.43214 47.8581 9.50997Z" stroke="url(#paint10_radial_1402_21737)" stroke-width="1.5"/>
<defs>
<radialGradient id="paint0_radial_1402_21737" cx="0" cy="0" r="1" gradientUnits="userSpaceOnUse" gradientTransform="translate(22.4544 6.89527) rotate(130.168) scale(27.2524)">
<stop offset="0.189563" stop-color="#5AE68D"/>
<stop offset="0.835376" stop-color="#43A684"/>
</radialGradient>
<linearGradient id="paint1_linear_1402_21737" x1="14.4387" y1="0.280273" x2="14.4387" y2="6.65028" gradientUnits="userSpaceOnUse">
<stop stop-color="#5ED284"/>
<stop offset="1" stop-color="#5ED284" stop-opacity="0"/>
</linearGradient>
<radialGradient id="paint2_radial_1402_21737" cx="0" cy="0" r="1" gradientUnits="userSpaceOnUse" gradientTransform="translate(22.9444 8.85524) rotate(136.38) scale(14.3832 15.4997)">
<stop offset="0.178657" stop-color="#6FFCA5"/>
<stop offset="1" stop-color="#65E6A7" stop-opacity="0"/>
</radialGradient>
<radialGradient id="paint3_radial_1402_21737" cx="0" cy="0" r="1" gradientUnits="userSpaceOnUse" gradientTransform="translate(18.8406 14.0002) rotate(180) scale(18.865 19.6)">
<stop offset="0.62013" stop-color="#64CB85" stop-opacity="0"/>
<stop offset="0.951299" stop-color="#A4E4B7"/>
</radialGradient>
<radialGradient id="paint4_radial_1402_21737" cx="0" cy="0" r="1" gradientUnits="userSpaceOnUse" gradientTransform="translate(14.4387 7.14024) rotate(90) scale(21.7437 22.5279)">
<stop offset="0.732143" stop-color="#4A9795" stop-opacity="0"/>
<stop offset="1" stop-color="#718CAD"/>
</radialGradient>
<radialGradient id="paint5_radial_1402_21737" cx="0" cy="0" r="1" gradientUnits="userSpaceOnUse" gradientTransform="translate(38.0107 7.78567) rotate(130.168) scale(23.8359 23.8359)">
<stop offset="0.189563" stop-color="#5AE68D"/>
<stop offset="0.835376" stop-color="#43A684"/>
</radialGradient>
<linearGradient id="paint6_linear_1402_21737" x1="31" y1="2" x2="31" y2="7.57145" gradientUnits="userSpaceOnUse">
<stop stop-color="#5ED284"/>
<stop offset="1" stop-color="#5ED284" stop-opacity="0"/>
</linearGradient>
<radialGradient id="paint7_radial_1402_21737" cx="0" cy="0" r="1" gradientUnits="userSpaceOnUse" gradientTransform="translate(38.4393 9.49996) rotate(136.38) scale(12.58 13.5566)">
<stop offset="0.178657" stop-color="#6FFCA5"/>
<stop offset="1" stop-color="#65E6A7" stop-opacity="0"/>
</radialGradient>
<radialGradient id="paint8_radial_1402_21737" cx="0" cy="0" r="1" gradientUnits="userSpaceOnUse" gradientTransform="translate(34.85 14) rotate(180) scale(16.5 17.1428)">
<stop offset="0.62013" stop-color="#64CB85" stop-opacity="0"/>
<stop offset="0.951299" stop-color="#A4E4B7"/>
</radialGradient>
<radialGradient id="paint9_radial_1402_21737" cx="0" cy="0" r="1" gradientUnits="userSpaceOnUse" gradientTransform="translate(31 8.00002) rotate(90) scale(19.0178 19.7037)">
<stop offset="0.732143" stop-color="#4A9795" stop-opacity="0"/>
<stop offset="1" stop-color="#718CAD"/>
</radialGradient>
<radialGradient id="paint10_radial_1402_21737" cx="0" cy="0" r="1" gradientUnits="userSpaceOnUse" gradientTransform="translate(34.3362 22.9217) rotate(-112.061) scale(18.173 51.5603)">
<stop stop-color="white"/>
<stop offset="1" stop-color="white" stop-opacity="0"/>
</radialGradient>
<clipPath id="clip0_1402_21737">
<rect width="28" height="28" fill="white" transform="translate(0.601562)"/>
</clipPath>
</defs>
</svg>
